<mxfile host="app.diagrams.net" agent="Mozilla/5.0 (X11; Linux x86_64; rv:128.0) Gecko/20100101 Firefox/128.0" version="26.0.10">
  <diagram name="Page-1" id="p-xQu5nGn-hJWLGe21lw">
    <mxGraphModel dx="682" dy="366" grid="1" gridSize="10" guides="1" tooltips="1" connect="1" arrows="1" fold="1" page="1" pageScale="1" pageWidth="850" pageHeight="1100" math="0" shadow="0">
      <root>
        <mxCell id="0" />
        <mxCell id="1" parent="0" />
        <mxCell id="o9fJnNTt_ZSAkgfhPsdU-8" style="rounded=0;orthogonalLoop=1;jettySize=auto;html=1;entryX=1;entryY=0.5;entryDx=0;entryDy=0;" edge="1" parent="1" source="o9fJnNTt_ZSAkgfhPsdU-1" target="o9fJnNTt_ZSAkgfhPsdU-7">
          <mxGeometry relative="1" as="geometry" />
        </mxCell>
        <mxCell id="o9fJnNTt_ZSAkgfhPsdU-10" style="rounded=0;orthogonalLoop=1;jettySize=auto;html=1;entryX=1;entryY=0.5;entryDx=0;entryDy=0;" edge="1" parent="1" source="o9fJnNTt_ZSAkgfhPsdU-1" target="o9fJnNTt_ZSAkgfhPsdU-3">
          <mxGeometry relative="1" as="geometry" />
        </mxCell>
        <mxCell id="o9fJnNTt_ZSAkgfhPsdU-11" style="edgeStyle=orthogonalEdgeStyle;rounded=0;orthogonalLoop=1;jettySize=auto;html=1;entryX=1;entryY=0.5;entryDx=0;entryDy=0;" edge="1" parent="1" source="o9fJnNTt_ZSAkgfhPsdU-1" target="o9fJnNTt_ZSAkgfhPsdU-4">
          <mxGeometry relative="1" as="geometry" />
        </mxCell>
        <mxCell id="o9fJnNTt_ZSAkgfhPsdU-12" style="rounded=0;orthogonalLoop=1;jettySize=auto;html=1;entryX=1;entryY=0.5;entryDx=0;entryDy=0;" edge="1" parent="1" source="o9fJnNTt_ZSAkgfhPsdU-1" target="o9fJnNTt_ZSAkgfhPsdU-5">
          <mxGeometry relative="1" as="geometry" />
        </mxCell>
        <mxCell id="o9fJnNTt_ZSAkgfhPsdU-13" style="rounded=0;orthogonalLoop=1;jettySize=auto;html=1;entryX=1;entryY=0.5;entryDx=0;entryDy=0;" edge="1" parent="1" source="o9fJnNTt_ZSAkgfhPsdU-1" target="o9fJnNTt_ZSAkgfhPsdU-6">
          <mxGeometry relative="1" as="geometry" />
        </mxCell>
        <mxCell id="o9fJnNTt_ZSAkgfhPsdU-20" style="edgeStyle=orthogonalEdgeStyle;rounded=0;orthogonalLoop=1;jettySize=auto;html=1;entryX=0;entryY=0.5;entryDx=0;entryDy=0;endArrow=none;startFill=0;" edge="1" parent="1" source="o9fJnNTt_ZSAkgfhPsdU-1" target="o9fJnNTt_ZSAkgfhPsdU-16">
          <mxGeometry relative="1" as="geometry">
            <Array as="points">
              <mxPoint x="315" y="300" />
              <mxPoint x="315" y="255" />
            </Array>
          </mxGeometry>
        </mxCell>
        <mxCell id="o9fJnNTt_ZSAkgfhPsdU-21" style="edgeStyle=orthogonalEdgeStyle;rounded=0;orthogonalLoop=1;jettySize=auto;html=1;entryX=0;entryY=0.5;entryDx=0;entryDy=0;endArrow=none;startFill=0;" edge="1" parent="1" source="o9fJnNTt_ZSAkgfhPsdU-1" target="o9fJnNTt_ZSAkgfhPsdU-18">
          <mxGeometry relative="1" as="geometry">
            <Array as="points">
              <mxPoint x="315" y="320" />
              <mxPoint x="315" y="370" />
            </Array>
          </mxGeometry>
        </mxCell>
        <mxCell id="o9fJnNTt_ZSAkgfhPsdU-24" style="edgeStyle=orthogonalEdgeStyle;rounded=0;orthogonalLoop=1;jettySize=auto;html=1;entryX=0;entryY=0.5;entryDx=0;entryDy=0;endArrow=none;startFill=0;" edge="1" parent="1" source="o9fJnNTt_ZSAkgfhPsdU-1" target="o9fJnNTt_ZSAkgfhPsdU-14">
          <mxGeometry relative="1" as="geometry">
            <Array as="points">
              <mxPoint x="230" y="180" />
            </Array>
          </mxGeometry>
        </mxCell>
        <mxCell id="o9fJnNTt_ZSAkgfhPsdU-1" value="USER" style="whiteSpace=wrap;html=1;align=center;" vertex="1" parent="1">
          <mxGeometry x="180" y="290" width="100" height="40" as="geometry" />
        </mxCell>
        <mxCell id="o9fJnNTt_ZSAkgfhPsdU-3" value="name" style="ellipse;whiteSpace=wrap;html=1;align=center;" vertex="1" parent="1">
          <mxGeometry x="110" y="280" width="50" height="20" as="geometry" />
        </mxCell>
        <mxCell id="o9fJnNTt_ZSAkgfhPsdU-4" value="lang" style="ellipse;whiteSpace=wrap;html=1;align=center;" vertex="1" parent="1">
          <mxGeometry x="110" y="300" width="50" height="20" as="geometry" />
        </mxCell>
        <mxCell id="o9fJnNTt_ZSAkgfhPsdU-5" value="bio" style="ellipse;whiteSpace=wrap;html=1;align=center;" vertex="1" parent="1">
          <mxGeometry x="110" y="320" width="50" height="20" as="geometry" />
        </mxCell>
        <mxCell id="o9fJnNTt_ZSAkgfhPsdU-6" value="regdate" style="ellipse;whiteSpace=wrap;html=1;align=center;" vertex="1" parent="1">
          <mxGeometry x="110" y="340" width="50" height="20" as="geometry" />
        </mxCell>
        <mxCell id="o9fJnNTt_ZSAkgfhPsdU-7" value="tlf" style="ellipse;whiteSpace=wrap;html=1;align=center;fontStyle=4;" vertex="1" parent="1">
          <mxGeometry x="110" y="260" width="50" height="20" as="geometry" />
        </mxCell>
        <mxCell id="o9fJnNTt_ZSAkgfhPsdU-25" style="edgeStyle=orthogonalEdgeStyle;rounded=0;orthogonalLoop=1;jettySize=auto;html=1;entryX=0;entryY=0.5;entryDx=0;entryDy=0;endArrow=none;startFill=0;" edge="1" parent="1" source="o9fJnNTt_ZSAkgfhPsdU-14">
          <mxGeometry relative="1" as="geometry">
            <mxPoint x="580" y="180" as="targetPoint" />
          </mxGeometry>
        </mxCell>
        <mxCell id="o9fJnNTt_ZSAkgfhPsdU-14" value="SAVES" style="shape=rhombus;perimeter=rhombusPerimeter;whiteSpace=wrap;html=1;align=center;" vertex="1" parent="1">
          <mxGeometry x="350" y="150" width="120" height="60" as="geometry" />
        </mxCell>
        <mxCell id="o9fJnNTt_ZSAkgfhPsdU-64" style="shape=connector;rounded=0;orthogonalLoop=1;jettySize=auto;html=1;entryX=0;entryY=0.5;entryDx=0;entryDy=0;strokeColor=default;align=center;verticalAlign=middle;fontFamily=Helvetica;fontSize=11;fontColor=default;labelBackgroundColor=default;startFill=0;endArrow=none;" edge="1" parent="1" target="o9fJnNTt_ZSAkgfhPsdU-59">
          <mxGeometry relative="1" as="geometry">
            <mxPoint x="675" y="160" as="sourcePoint" />
          </mxGeometry>
        </mxCell>
        <mxCell id="o9fJnNTt_ZSAkgfhPsdU-22" style="edgeStyle=orthogonalEdgeStyle;rounded=0;orthogonalLoop=1;jettySize=auto;html=1;entryX=0;entryY=0.5;entryDx=0;entryDy=0;endArrow=none;startFill=0;" edge="1" parent="1" source="o9fJnNTt_ZSAkgfhPsdU-16" target="o9fJnNTt_ZSAkgfhPsdU-17">
          <mxGeometry relative="1" as="geometry">
            <Array as="points">
              <mxPoint x="410" y="310" />
              <mxPoint x="490" y="310" />
              <mxPoint x="490" y="360" />
              <mxPoint x="580" y="360" />
            </Array>
          </mxGeometry>
        </mxCell>
        <mxCell id="o9fJnNTt_ZSAkgfhPsdU-33" style="edgeStyle=orthogonalEdgeStyle;shape=connector;rounded=0;orthogonalLoop=1;jettySize=auto;html=1;entryX=0;entryY=0.5;entryDx=0;entryDy=0;strokeColor=default;align=center;verticalAlign=middle;fontFamily=Helvetica;fontSize=11;fontColor=default;labelBackgroundColor=default;startFill=0;endArrow=none;" edge="1" parent="1" source="o9fJnNTt_ZSAkgfhPsdU-16" target="o9fJnNTt_ZSAkgfhPsdU-32">
          <mxGeometry relative="1" as="geometry" />
        </mxCell>
        <mxCell id="o9fJnNTt_ZSAkgfhPsdU-16" value="MEMBER" style="shape=rhombus;perimeter=rhombusPerimeter;whiteSpace=wrap;html=1;align=center;" vertex="1" parent="1">
          <mxGeometry x="350" y="225" width="120" height="60" as="geometry" />
        </mxCell>
        <mxCell id="o9fJnNTt_ZSAkgfhPsdU-28" style="edgeStyle=orthogonalEdgeStyle;rounded=0;orthogonalLoop=1;jettySize=auto;html=1;endArrow=none;startFill=0;entryX=0;entryY=0.5;entryDx=0;entryDy=0;" edge="1" parent="1" source="o9fJnNTt_ZSAkgfhPsdU-17" target="o9fJnNTt_ZSAkgfhPsdU-26">
          <mxGeometry relative="1" as="geometry">
            <mxPoint x="740" y="340" as="targetPoint" />
          </mxGeometry>
        </mxCell>
        <mxCell id="o9fJnNTt_ZSAkgfhPsdU-87" style="shape=connector;rounded=0;orthogonalLoop=1;jettySize=auto;html=1;entryX=0.5;entryY=1;entryDx=0;entryDy=0;strokeColor=default;align=center;verticalAlign=middle;fontFamily=Helvetica;fontSize=11;fontColor=default;labelBackgroundColor=default;startFill=0;endArrow=none;" edge="1" parent="1" source="o9fJnNTt_ZSAkgfhPsdU-17" target="o9fJnNTt_ZSAkgfhPsdU-85">
          <mxGeometry relative="1" as="geometry" />
        </mxCell>
        <mxCell id="o9fJnNTt_ZSAkgfhPsdU-17" value="GROUP_CHAT" style="whiteSpace=wrap;html=1;align=center;" vertex="1" parent="1">
          <mxGeometry x="580" y="350" width="100" height="40" as="geometry" />
        </mxCell>
        <mxCell id="o9fJnNTt_ZSAkgfhPsdU-23" style="edgeStyle=orthogonalEdgeStyle;rounded=0;orthogonalLoop=1;jettySize=auto;html=1;entryX=0;entryY=0.5;entryDx=0;entryDy=0;endArrow=none;startFill=0;" edge="1" parent="1" source="o9fJnNTt_ZSAkgfhPsdU-18" target="o9fJnNTt_ZSAkgfhPsdU-17">
          <mxGeometry relative="1" as="geometry">
            <Array as="points">
              <mxPoint x="530" y="370" />
              <mxPoint x="530" y="370" />
            </Array>
          </mxGeometry>
        </mxCell>
        <mxCell id="o9fJnNTt_ZSAkgfhPsdU-18" value="ADMIN" style="shape=rhombus;perimeter=rhombusPerimeter;whiteSpace=wrap;html=1;align=center;" vertex="1" parent="1">
          <mxGeometry x="350" y="340" width="120" height="60" as="geometry" />
        </mxCell>
        <mxCell id="o9fJnNTt_ZSAkgfhPsdU-29" style="edgeStyle=orthogonalEdgeStyle;rounded=0;orthogonalLoop=1;jettySize=auto;html=1;entryX=0;entryY=0.5;entryDx=0;entryDy=0;endArrow=none;startFill=0;" edge="1" parent="1" source="o9fJnNTt_ZSAkgfhPsdU-26">
          <mxGeometry relative="1" as="geometry">
            <mxPoint x="890" y="310" as="targetPoint" />
          </mxGeometry>
        </mxCell>
        <mxCell id="o9fJnNTt_ZSAkgfhPsdU-26" value="PUBLISH" style="shape=rhombus;perimeter=rhombusPerimeter;whiteSpace=wrap;html=1;align=center;" vertex="1" parent="1">
          <mxGeometry x="740" y="280" width="120" height="60" as="geometry" />
        </mxCell>
        <mxCell id="o9fJnNTt_ZSAkgfhPsdU-36" style="edgeStyle=orthogonalEdgeStyle;shape=connector;rounded=0;orthogonalLoop=1;jettySize=auto;html=1;entryX=0;entryY=0.5;entryDx=0;entryDy=0;strokeColor=default;align=center;verticalAlign=middle;fontFamily=Helvetica;fontSize=11;fontColor=default;labelBackgroundColor=default;startFill=0;endArrow=none;" edge="1" parent="1" target="o9fJnNTt_ZSAkgfhPsdU-35">
          <mxGeometry relative="1" as="geometry">
            <mxPoint x="990" y="310" as="sourcePoint" />
          </mxGeometry>
        </mxCell>
        <mxCell id="o9fJnNTt_ZSAkgfhPsdU-55" style="edgeStyle=orthogonalEdgeStyle;shape=connector;rounded=0;orthogonalLoop=1;jettySize=auto;html=1;entryX=0.5;entryY=0;entryDx=0;entryDy=0;strokeColor=default;align=center;verticalAlign=middle;fontFamily=Helvetica;fontSize=11;fontColor=default;labelBackgroundColor=default;startFill=0;endArrow=none;" edge="1" parent="1" target="o9fJnNTt_ZSAkgfhPsdU-54">
          <mxGeometry relative="1" as="geometry">
            <mxPoint x="940" y="330" as="sourcePoint" />
          </mxGeometry>
        </mxCell>
        <mxCell id="o9fJnNTt_ZSAkgfhPsdU-34" style="edgeStyle=orthogonalEdgeStyle;shape=connector;rounded=0;orthogonalLoop=1;jettySize=auto;html=1;entryX=0;entryY=0.5;entryDx=0;entryDy=0;strokeColor=default;align=center;verticalAlign=middle;fontFamily=Helvetica;fontSize=11;fontColor=default;labelBackgroundColor=default;startFill=0;endArrow=none;" edge="1" parent="1" source="o9fJnNTt_ZSAkgfhPsdU-32" target="o9fJnNTt_ZSAkgfhPsdU-26">
          <mxGeometry relative="1" as="geometry" />
        </mxCell>
        <mxCell id="o9fJnNTt_ZSAkgfhPsdU-86" style="shape=connector;rounded=0;orthogonalLoop=1;jettySize=auto;html=1;strokeColor=default;align=center;verticalAlign=middle;fontFamily=Helvetica;fontSize=11;fontColor=default;labelBackgroundColor=default;startFill=0;endArrow=none;" edge="1" parent="1" source="o9fJnNTt_ZSAkgfhPsdU-32" target="o9fJnNTt_ZSAkgfhPsdU-85">
          <mxGeometry relative="1" as="geometry" />
        </mxCell>
        <mxCell id="o9fJnNTt_ZSAkgfhPsdU-32" value="PRIVATE_CHAT" style="whiteSpace=wrap;html=1;align=center;" vertex="1" parent="1">
          <mxGeometry x="580" y="235" width="100" height="40" as="geometry" />
        </mxCell>
        <mxCell id="o9fJnNTt_ZSAkgfhPsdU-39" style="edgeStyle=orthogonalEdgeStyle;shape=connector;rounded=0;orthogonalLoop=1;jettySize=auto;html=1;entryX=0;entryY=0.5;entryDx=0;entryDy=0;strokeColor=default;align=center;verticalAlign=middle;fontFamily=Helvetica;fontSize=11;fontColor=default;labelBackgroundColor=default;startFill=0;endArrow=none;" edge="1" parent="1" source="o9fJnNTt_ZSAkgfhPsdU-35" target="o9fJnNTt_ZSAkgfhPsdU-37">
          <mxGeometry relative="1" as="geometry" />
        </mxCell>
        <mxCell id="o9fJnNTt_ZSAkgfhPsdU-40" style="edgeStyle=orthogonalEdgeStyle;shape=connector;rounded=0;orthogonalLoop=1;jettySize=auto;html=1;entryX=0;entryY=0.5;entryDx=0;entryDy=0;strokeColor=default;align=center;verticalAlign=middle;fontFamily=Helvetica;fontSize=11;fontColor=default;labelBackgroundColor=default;startFill=0;endArrow=none;" edge="1" parent="1" source="o9fJnNTt_ZSAkgfhPsdU-35" target="o9fJnNTt_ZSAkgfhPsdU-38">
          <mxGeometry relative="1" as="geometry" />
        </mxCell>
        <mxCell id="o9fJnNTt_ZSAkgfhPsdU-35" value="CONTAINS" style="shape=rhombus;perimeter=rhombusPerimeter;whiteSpace=wrap;html=1;align=center;fontFamily=Helvetica;fontSize=11;fontColor=default;labelBackgroundColor=default;" vertex="1" parent="1">
          <mxGeometry x="1030" y="280" width="120" height="60" as="geometry" />
        </mxCell>
        <mxCell id="o9fJnNTt_ZSAkgfhPsdU-100" style="edgeStyle=orthogonalEdgeStyle;shape=connector;rounded=0;orthogonalLoop=1;jettySize=auto;html=1;entryX=0;entryY=0.5;entryDx=0;entryDy=0;strokeColor=default;align=center;verticalAlign=middle;fontFamily=Helvetica;fontSize=11;fontColor=default;labelBackgroundColor=default;startFill=0;endArrow=none;" edge="1" parent="1" source="o9fJnNTt_ZSAkgfhPsdU-37" target="o9fJnNTt_ZSAkgfhPsdU-99">
          <mxGeometry relative="1" as="geometry" />
        </mxCell>
        <mxCell id="o9fJnNTt_ZSAkgfhPsdU-37" value="TEXT_MESSAGE" style="whiteSpace=wrap;html=1;align=center;" vertex="1" parent="1">
          <mxGeometry x="1200" y="250" width="150" height="40" as="geometry" />
        </mxCell>
        <mxCell id="o9fJnNTt_ZSAkgfhPsdU-38" value="MULTIMEDIA_MESSAGE" style="whiteSpace=wrap;html=1;align=center;" vertex="1" parent="1">
          <mxGeometry x="1200" y="330" width="150" height="40" as="geometry" />
        </mxCell>
        <mxCell id="o9fJnNTt_ZSAkgfhPsdU-41" value="(0,n)" style="text;strokeColor=none;fillColor=none;spacingLeft=4;spacingRight=4;overflow=hidden;rotatable=0;points=[[0,0.5],[1,0.5]];portConstraint=eastwest;fontSize=11;whiteSpace=wrap;html=1;fontFamily=Helvetica;fontColor=default;labelBackgroundColor=default;" vertex="1" parent="1">
          <mxGeometry x="280" y="275" width="40" height="30" as="geometry" />
        </mxCell>
        <mxCell id="o9fJnNTt_ZSAkgfhPsdU-42" value="(2,2)" style="text;strokeColor=none;fillColor=none;spacingLeft=4;spacingRight=4;overflow=hidden;rotatable=0;points=[[0,0.5],[1,0.5]];portConstraint=eastwest;fontSize=11;whiteSpace=wrap;html=1;fontFamily=Helvetica;fontColor=default;labelBackgroundColor=default;" vertex="1" parent="1">
          <mxGeometry x="540" y="230" width="40" height="30" as="geometry" />
        </mxCell>
        <mxCell id="o9fJnNTt_ZSAkgfhPsdU-43" value="(0,n)" style="text;strokeColor=none;fillColor=none;spacingLeft=4;spacingRight=4;overflow=hidden;rotatable=0;points=[[0,0.5],[1,0.5]];portConstraint=eastwest;fontSize=11;whiteSpace=wrap;html=1;fontFamily=Helvetica;fontColor=default;labelBackgroundColor=default;" vertex="1" parent="1">
          <mxGeometry x="490" y="335" width="40" height="30" as="geometry" />
        </mxCell>
        <mxCell id="o9fJnNTt_ZSAkgfhPsdU-44" value="(1,1)" style="text;strokeColor=none;fillColor=none;spacingLeft=4;spacingRight=4;overflow=hidden;rotatable=0;points=[[0,0.5],[1,0.5]];portConstraint=eastwest;fontSize=11;whiteSpace=wrap;html=1;fontFamily=Helvetica;fontColor=default;labelBackgroundColor=default;" vertex="1" parent="1">
          <mxGeometry x="540" y="365" width="40" height="30" as="geometry" />
        </mxCell>
        <mxCell id="o9fJnNTt_ZSAkgfhPsdU-45" value="(0,n)" style="text;strokeColor=none;fillColor=none;spacingLeft=4;spacingRight=4;overflow=hidden;rotatable=0;points=[[0,0.5],[1,0.5]];portConstraint=eastwest;fontSize=11;whiteSpace=wrap;html=1;fontFamily=Helvetica;fontColor=default;labelBackgroundColor=default;" vertex="1" parent="1">
          <mxGeometry x="710" y="285" width="40" height="30" as="geometry" />
        </mxCell>
        <mxCell id="o9fJnNTt_ZSAkgfhPsdU-46" value="(1,1)" style="text;strokeColor=none;fillColor=none;spacingLeft=4;spacingRight=4;overflow=hidden;rotatable=0;points=[[0,0.5],[1,0.5]];portConstraint=eastwest;fontSize=11;whiteSpace=wrap;html=1;fontFamily=Helvetica;fontColor=default;labelBackgroundColor=default;" vertex="1" parent="1">
          <mxGeometry x="850" y="285" width="40" height="30" as="geometry" />
        </mxCell>
        <mxCell id="o9fJnNTt_ZSAkgfhPsdU-47" value="(1,2)" style="text;strokeColor=none;fillColor=none;spacingLeft=4;spacingRight=4;overflow=hidden;rotatable=0;points=[[0,0.5],[1,0.5]];portConstraint=eastwest;fontSize=11;whiteSpace=wrap;html=1;fontFamily=Helvetica;fontColor=default;labelBackgroundColor=default;" vertex="1" parent="1">
          <mxGeometry x="990" y="285" width="40" height="30" as="geometry" />
        </mxCell>
        <mxCell id="o9fJnNTt_ZSAkgfhPsdU-48" value="(1,1)" style="text;strokeColor=none;fillColor=none;spacingLeft=4;spacingRight=4;overflow=hidden;rotatable=0;points=[[0,0.5],[1,0.5]];portConstraint=eastwest;fontSize=11;whiteSpace=wrap;html=1;fontFamily=Helvetica;fontColor=default;labelBackgroundColor=default;" vertex="1" parent="1">
          <mxGeometry x="1160" y="245" width="40" height="30" as="geometry" />
        </mxCell>
        <mxCell id="o9fJnNTt_ZSAkgfhPsdU-49" value="(1,1)" style="text;strokeColor=none;fillColor=none;spacingLeft=4;spacingRight=4;overflow=hidden;rotatable=0;points=[[0,0.5],[1,0.5]];portConstraint=eastwest;fontSize=11;whiteSpace=wrap;html=1;fontFamily=Helvetica;fontColor=default;labelBackgroundColor=default;" vertex="1" parent="1">
          <mxGeometry x="1160" y="350" width="40" height="30" as="geometry" />
        </mxCell>
        <mxCell id="o9fJnNTt_ZSAkgfhPsdU-51" value="Contains one or both" style="text;strokeColor=none;fillColor=none;spacingLeft=4;spacingRight=4;overflow=hidden;rotatable=0;points=[[0,0.5],[1,0.5]];portConstraint=eastwest;fontSize=11;whiteSpace=wrap;html=1;fontFamily=Helvetica;fontColor=default;labelBackgroundColor=default;" vertex="1" parent="1">
          <mxGeometry x="1030" y="245" width="120" height="30" as="geometry" />
        </mxCell>
        <mxCell id="o9fJnNTt_ZSAkgfhPsdU-52" value="(0,n)" style="text;strokeColor=none;fillColor=none;spacingLeft=4;spacingRight=4;overflow=hidden;rotatable=0;points=[[0,0.5],[1,0.5]];portConstraint=eastwest;fontSize=11;whiteSpace=wrap;html=1;fontFamily=Helvetica;fontColor=default;labelBackgroundColor=default;" vertex="1" parent="1">
          <mxGeometry x="230" y="265" width="40" height="30" as="geometry" />
        </mxCell>
        <mxCell id="o9fJnNTt_ZSAkgfhPsdU-53" value="(1,1)" style="text;strokeColor=none;fillColor=none;spacingLeft=4;spacingRight=4;overflow=hidden;rotatable=0;points=[[0,0.5],[1,0.5]];portConstraint=eastwest;fontSize=11;whiteSpace=wrap;html=1;fontFamily=Helvetica;fontColor=default;labelBackgroundColor=default;" vertex="1" parent="1">
          <mxGeometry x="540" y="150" width="40" height="30" as="geometry" />
        </mxCell>
        <mxCell id="o9fJnNTt_ZSAkgfhPsdU-90" style="edgeStyle=orthogonalEdgeStyle;shape=connector;rounded=0;orthogonalLoop=1;jettySize=auto;html=1;strokeColor=default;align=center;verticalAlign=middle;fontFamily=Helvetica;fontSize=11;fontColor=default;labelBackgroundColor=default;startFill=0;endArrow=none;" edge="1" parent="1" source="o9fJnNTt_ZSAkgfhPsdU-54" target="o9fJnNTt_ZSAkgfhPsdU-91">
          <mxGeometry relative="1" as="geometry">
            <mxPoint x="990" y="440" as="targetPoint" />
          </mxGeometry>
        </mxCell>
        <mxCell id="o9fJnNTt_ZSAkgfhPsdU-54" value="REPLIES" style="shape=rhombus;perimeter=rhombusPerimeter;whiteSpace=wrap;html=1;align=center;fontFamily=Helvetica;fontSize=11;fontColor=default;labelBackgroundColor=default;" vertex="1" parent="1">
          <mxGeometry x="880" y="360" width="120" height="60" as="geometry" />
        </mxCell>
        <mxCell id="o9fJnNTt_ZSAkgfhPsdU-57" value="(0,1)" style="text;strokeColor=none;fillColor=none;spacingLeft=4;spacingRight=4;overflow=hidden;rotatable=0;points=[[0,0.5],[1,0.5]];portConstraint=eastwest;fontSize=11;whiteSpace=wrap;html=1;fontFamily=Helvetica;fontColor=default;labelBackgroundColor=default;" vertex="1" parent="1">
          <mxGeometry x="950" y="430" width="40" height="30" as="geometry" />
        </mxCell>
        <mxCell id="o9fJnNTt_ZSAkgfhPsdU-58" value="(0,1)" style="text;strokeColor=none;fillColor=none;spacingLeft=4;spacingRight=4;overflow=hidden;rotatable=0;points=[[0,0.5],[1,0.5]];portConstraint=eastwest;fontSize=11;whiteSpace=wrap;html=1;fontFamily=Helvetica;fontColor=default;labelBackgroundColor=default;" vertex="1" parent="1">
          <mxGeometry x="950" y="335" width="40" height="30" as="geometry" />
        </mxCell>
        <mxCell id="o9fJnNTt_ZSAkgfhPsdU-59" value="tlf" style="ellipse;whiteSpace=wrap;html=1;align=center;fontStyle=4;" vertex="1" parent="1">
          <mxGeometry x="720" y="130" width="50" height="20" as="geometry" />
        </mxCell>
        <mxCell id="o9fJnNTt_ZSAkgfhPsdU-60" value="name" style="ellipse;whiteSpace=wrap;html=1;align=center;" vertex="1" parent="1">
          <mxGeometry x="720" y="150" width="50" height="20" as="geometry" />
        </mxCell>
        <mxCell id="o9fJnNTt_ZSAkgfhPsdU-61" value="&lt;div&gt;lastname&lt;/div&gt;" style="ellipse;whiteSpace=wrap;html=1;align=center;" vertex="1" parent="1">
          <mxGeometry x="720" y="170" width="50" height="20" as="geometry" />
        </mxCell>
        <mxCell id="o9fJnNTt_ZSAkgfhPsdU-62" value="email" style="ellipse;whiteSpace=wrap;html=1;align=center;" vertex="1" parent="1">
          <mxGeometry x="720" y="190" width="50" height="20" as="geometry" />
        </mxCell>
        <mxCell id="o9fJnNTt_ZSAkgfhPsdU-63" value="bday" style="ellipse;whiteSpace=wrap;html=1;align=center;" vertex="1" parent="1">
          <mxGeometry x="720" y="210" width="50" height="20" as="geometry" />
        </mxCell>
        <mxCell id="o9fJnNTt_ZSAkgfhPsdU-65" style="shape=connector;rounded=0;orthogonalLoop=1;jettySize=auto;html=1;entryX=0;entryY=0.5;entryDx=0;entryDy=0;strokeColor=default;align=center;verticalAlign=middle;fontFamily=Helvetica;fontSize=11;fontColor=default;labelBackgroundColor=default;startFill=0;endArrow=none;" edge="1" parent="1" target="o9fJnNTt_ZSAkgfhPsdU-60">
          <mxGeometry relative="1" as="geometry">
            <mxPoint x="680" y="168.8888888888889" as="sourcePoint" />
            <mxPoint x="730" y="140" as="targetPoint" />
          </mxGeometry>
        </mxCell>
        <mxCell id="o9fJnNTt_ZSAkgfhPsdU-66" style="shape=connector;rounded=0;orthogonalLoop=1;jettySize=auto;html=1;entryX=0;entryY=0.5;entryDx=0;entryDy=0;strokeColor=default;align=center;verticalAlign=middle;fontFamily=Helvetica;fontSize=11;fontColor=default;labelBackgroundColor=default;startFill=0;endArrow=none;" edge="1" parent="1" target="o9fJnNTt_ZSAkgfhPsdU-61">
          <mxGeometry relative="1" as="geometry">
            <mxPoint x="680" y="180" as="sourcePoint" />
            <mxPoint x="740" y="150" as="targetPoint" />
          </mxGeometry>
        </mxCell>
        <mxCell id="o9fJnNTt_ZSAkgfhPsdU-67" style="shape=connector;rounded=0;orthogonalLoop=1;jettySize=auto;html=1;entryX=0;entryY=0.5;entryDx=0;entryDy=0;strokeColor=default;align=center;verticalAlign=middle;fontFamily=Helvetica;fontSize=11;fontColor=default;labelBackgroundColor=default;startFill=0;endArrow=none;" edge="1" parent="1" target="o9fJnNTt_ZSAkgfhPsdU-62">
          <mxGeometry relative="1" as="geometry">
            <mxPoint x="680" y="191.1111111111111" as="sourcePoint" />
            <mxPoint x="750" y="160" as="targetPoint" />
          </mxGeometry>
        </mxCell>
        <mxCell id="o9fJnNTt_ZSAkgfhPsdU-68" style="shape=connector;rounded=0;orthogonalLoop=1;jettySize=auto;html=1;entryX=0;entryY=0.5;entryDx=0;entryDy=0;strokeColor=default;align=center;verticalAlign=middle;fontFamily=Helvetica;fontSize=11;fontColor=default;labelBackgroundColor=default;startFill=0;endArrow=none;" edge="1" parent="1" target="o9fJnNTt_ZSAkgfhPsdU-63">
          <mxGeometry relative="1" as="geometry">
            <mxPoint x="675" y="200" as="sourcePoint" />
            <mxPoint x="760" y="170" as="targetPoint" />
          </mxGeometry>
        </mxCell>
        <mxCell id="o9fJnNTt_ZSAkgfhPsdU-69" value="(0,1)" style="text;strokeColor=none;fillColor=none;spacingLeft=4;spacingRight=4;overflow=hidden;rotatable=0;points=[[0,0.5],[1,0.5]];portConstraint=eastwest;fontSize=11;whiteSpace=wrap;html=1;fontFamily=Helvetica;fontColor=default;labelBackgroundColor=default;" vertex="1" parent="1">
          <mxGeometry x="680" y="160" width="40" height="30" as="geometry" />
        </mxCell>
        <mxCell id="o9fJnNTt_ZSAkgfhPsdU-70" value="(0,2)" style="text;strokeColor=none;fillColor=none;spacingLeft=4;spacingRight=4;overflow=hidden;rotatable=0;points=[[0,0.5],[1,0.5]];portConstraint=eastwest;fontSize=11;whiteSpace=wrap;html=1;fontFamily=Helvetica;fontColor=default;labelBackgroundColor=default;" vertex="1" parent="1">
          <mxGeometry x="690" y="180" width="40" height="30" as="geometry" />
        </mxCell>
        <mxCell id="o9fJnNTt_ZSAkgfhPsdU-71" value="(0,1)" style="text;strokeColor=none;fillColor=none;spacingLeft=4;spacingRight=4;overflow=hidden;rotatable=0;points=[[0,0.5],[1,0.5]];portConstraint=eastwest;fontSize=11;whiteSpace=wrap;html=1;fontFamily=Helvetica;fontColor=default;labelBackgroundColor=default;" vertex="1" parent="1">
          <mxGeometry x="660" y="275" width="40" height="25" as="geometry" />
        </mxCell>
        <mxCell id="o9fJnNTt_ZSAkgfhPsdU-76" style="shape=connector;rounded=0;orthogonalLoop=1;jettySize=auto;html=1;strokeColor=default;align=center;verticalAlign=middle;fontFamily=Helvetica;fontSize=11;fontColor=default;labelBackgroundColor=default;startFill=0;endArrow=none;entryX=-0.02;entryY=0.118;entryDx=0;entryDy=0;entryPerimeter=0;" edge="1" parent="1" source="o9fJnNTt_ZSAkgfhPsdU-74" target="o9fJnNTt_ZSAkgfhPsdU-17">
          <mxGeometry relative="1" as="geometry" />
        </mxCell>
        <mxCell id="o9fJnNTt_ZSAkgfhPsdU-74" value="cdate" style="ellipse;whiteSpace=wrap;html=1;align=center;" vertex="1" parent="1">
          <mxGeometry x="510" y="305" width="50" height="20" as="geometry" />
        </mxCell>
        <mxCell id="o9fJnNTt_ZSAkgfhPsdU-77" style="shape=connector;rounded=0;orthogonalLoop=1;jettySize=auto;html=1;strokeColor=default;align=center;verticalAlign=middle;fontFamily=Helvetica;fontSize=11;fontColor=default;labelBackgroundColor=default;startFill=0;endArrow=none;" edge="1" parent="1" source="o9fJnNTt_ZSAkgfhPsdU-74">
          <mxGeometry relative="1" as="geometry">
            <mxPoint x="580" y="270" as="targetPoint" />
          </mxGeometry>
        </mxCell>
        <mxCell id="o9fJnNTt_ZSAkgfhPsdU-79" style="shape=connector;rounded=0;orthogonalLoop=1;jettySize=auto;html=1;entryX=0.168;entryY=1.013;entryDx=0;entryDy=0;strokeColor=default;align=center;verticalAlign=middle;fontFamily=Helvetica;fontSize=11;fontColor=default;labelBackgroundColor=default;startFill=0;endArrow=none;entryPerimeter=0;" edge="1" parent="1" source="o9fJnNTt_ZSAkgfhPsdU-78" target="o9fJnNTt_ZSAkgfhPsdU-32">
          <mxGeometry relative="1" as="geometry" />
        </mxCell>
        <mxCell id="o9fJnNTt_ZSAkgfhPsdU-80" style="shape=connector;rounded=0;orthogonalLoop=1;jettySize=auto;html=1;entryX=0.14;entryY=-0.025;entryDx=0;entryDy=0;strokeColor=default;align=center;verticalAlign=middle;fontFamily=Helvetica;fontSize=11;fontColor=default;labelBackgroundColor=default;startFill=0;endArrow=none;entryPerimeter=0;" edge="1" parent="1" source="o9fJnNTt_ZSAkgfhPsdU-78" target="o9fJnNTt_ZSAkgfhPsdU-17">
          <mxGeometry relative="1" as="geometry" />
        </mxCell>
        <mxCell id="o9fJnNTt_ZSAkgfhPsdU-78" value="name" style="ellipse;whiteSpace=wrap;html=1;align=center;" vertex="1" parent="1">
          <mxGeometry x="560" y="305" width="50" height="20" as="geometry" />
        </mxCell>
        <mxCell id="o9fJnNTt_ZSAkgfhPsdU-81" value="img" style="ellipse;whiteSpace=wrap;html=1;align=center;" vertex="1" parent="1">
          <mxGeometry x="610" y="305" width="50" height="20" as="geometry" />
        </mxCell>
        <mxCell id="o9fJnNTt_ZSAkgfhPsdU-82" style="shape=connector;rounded=0;orthogonalLoop=1;jettySize=auto;html=1;entryX=0.483;entryY=0.95;entryDx=0;entryDy=0;entryPerimeter=0;strokeColor=default;align=center;verticalAlign=middle;fontFamily=Helvetica;fontSize=11;fontColor=default;labelBackgroundColor=default;startFill=0;endArrow=none;" edge="1" parent="1" source="o9fJnNTt_ZSAkgfhPsdU-81" target="o9fJnNTt_ZSAkgfhPsdU-32">
          <mxGeometry relative="1" as="geometry" />
        </mxCell>
        <mxCell id="o9fJnNTt_ZSAkgfhPsdU-83" style="shape=connector;rounded=0;orthogonalLoop=1;jettySize=auto;html=1;entryX=0.55;entryY=0.033;entryDx=0;entryDy=0;entryPerimeter=0;strokeColor=default;align=center;verticalAlign=middle;fontFamily=Helvetica;fontSize=11;fontColor=default;labelBackgroundColor=default;startFill=0;endArrow=none;" edge="1" parent="1" source="o9fJnNTt_ZSAkgfhPsdU-81" target="o9fJnNTt_ZSAkgfhPsdU-17">
          <mxGeometry relative="1" as="geometry" />
        </mxCell>
        <mxCell id="o9fJnNTt_ZSAkgfhPsdU-84" value="(0,1)" style="text;strokeColor=none;fillColor=none;spacingLeft=4;spacingRight=4;overflow=hidden;rotatable=0;points=[[0,0.5],[1,0.5]];portConstraint=eastwest;fontSize=11;whiteSpace=wrap;html=1;fontFamily=Helvetica;fontColor=default;labelBackgroundColor=default;" vertex="1" parent="1">
          <mxGeometry x="665" y="320" width="40" height="30" as="geometry" />
        </mxCell>
        <mxCell id="o9fJnNTt_ZSAkgfhPsdU-85" value="id" style="ellipse;whiteSpace=wrap;html=1;align=center;" vertex="1" parent="1">
          <mxGeometry x="660" y="305" width="50" height="20" as="geometry" />
        </mxCell>
        <mxCell id="o9fJnNTt_ZSAkgfhPsdU-88" value="&lt;div&gt;CONTACT&lt;/div&gt;" style="shape=ext;margin=3;double=1;whiteSpace=wrap;html=1;align=center;fontFamily=Helvetica;fontSize=11;fontColor=default;labelBackgroundColor=default;" vertex="1" parent="1">
          <mxGeometry x="580" y="160" width="100" height="40" as="geometry" />
        </mxCell>
        <mxCell id="o9fJnNTt_ZSAkgfhPsdU-91" value="MESSAGE" style="shape=ext;margin=3;double=1;whiteSpace=wrap;html=1;align=center;fontFamily=Helvetica;fontSize=11;fontColor=default;labelBackgroundColor=default;" vertex="1" parent="1">
          <mxGeometry x="890" y="290" width="100" height="40" as="geometry" />
        </mxCell>
        <mxCell id="o9fJnNTt_ZSAkgfhPsdU-92" style="edgeStyle=orthogonalEdgeStyle;shape=connector;rounded=0;orthogonalLoop=1;jettySize=auto;html=1;strokeColor=default;align=center;verticalAlign=middle;fontFamily=Helvetica;fontSize=11;fontColor=default;labelBackgroundColor=default;startFill=0;endArrow=none;" edge="1" parent="1" source="o9fJnNTt_ZSAkgfhPsdU-54">
          <mxGeometry relative="1" as="geometry">
            <mxPoint x="940" y="330" as="targetPoint" />
            <Array as="points">
              <mxPoint x="940" y="430" />
              <mxPoint x="1010" y="430" />
              <mxPoint x="1010" y="340" />
              <mxPoint x="940" y="340" />
              <mxPoint x="940" y="330" />
            </Array>
          </mxGeometry>
        </mxCell>
        <mxCell id="o9fJnNTt_ZSAkgfhPsdU-93" value="nmembers" style="ellipse;whiteSpace=wrap;html=1;align=center;dashed=1;fontFamily=Helvetica;fontSize=11;fontColor=default;labelBackgroundColor=default;" vertex="1" parent="1">
          <mxGeometry x="850" y="237.5" width="50" height="15" as="geometry" />
        </mxCell>
        <mxCell id="o9fJnNTt_ZSAkgfhPsdU-94" style="shape=connector;rounded=0;orthogonalLoop=1;jettySize=auto;html=1;entryX=0.199;entryY=-0.007;entryDx=0;entryDy=0;entryPerimeter=0;strokeColor=default;align=center;verticalAlign=middle;fontFamily=Helvetica;fontSize=11;fontColor=default;labelBackgroundColor=default;startFill=0;endArrow=none;" edge="1" parent="1" source="o9fJnNTt_ZSAkgfhPsdU-93" target="o9fJnNTt_ZSAkgfhPsdU-91">
          <mxGeometry relative="1" as="geometry" />
        </mxCell>
        <mxCell id="o9fJnNTt_ZSAkgfhPsdU-98" style="shape=connector;rounded=0;orthogonalLoop=1;jettySize=auto;html=1;entryX=0.75;entryY=0;entryDx=0;entryDy=0;strokeColor=default;align=center;verticalAlign=middle;fontFamily=Helvetica;fontSize=11;fontColor=default;labelBackgroundColor=default;startFill=0;endArrow=none;" edge="1" parent="1" source="o9fJnNTt_ZSAkgfhPsdU-95" target="o9fJnNTt_ZSAkgfhPsdU-91">
          <mxGeometry relative="1" as="geometry" />
        </mxCell>
        <mxCell id="o9fJnNTt_ZSAkgfhPsdU-95" value="forwarded" style="ellipse;whiteSpace=wrap;html=1;align=center;" vertex="1" parent="1">
          <mxGeometry x="950" y="235" width="50" height="20" as="geometry" />
        </mxCell>
        <mxCell id="o9fJnNTt_ZSAkgfhPsdU-96" value="ptime" style="ellipse;whiteSpace=wrap;html=1;align=center;fontStyle=4;" vertex="1" parent="1">
          <mxGeometry x="900" y="235" width="50" height="20" as="geometry" />
        </mxCell>
        <mxCell id="o9fJnNTt_ZSAkgfhPsdU-97" style="shape=connector;rounded=0;orthogonalLoop=1;jettySize=auto;html=1;entryX=0.423;entryY=0.005;entryDx=0;entryDy=0;entryPerimeter=0;strokeColor=default;align=center;verticalAlign=middle;fontFamily=Helvetica;fontSize=11;fontColor=default;labelBackgroundColor=default;startFill=0;endArrow=none;" edge="1" parent="1" source="o9fJnNTt_ZSAkgfhPsdU-96" target="o9fJnNTt_ZSAkgfhPsdU-91">
          <mxGeometry relative="1" as="geometry" />
        </mxCell>
        <mxCell id="o9fJnNTt_ZSAkgfhPsdU-99" value="mimetype" style="ellipse;whiteSpace=wrap;html=1;align=center;" vertex="1" parent="1">
          <mxGeometry x="1400" y="240" width="50" height="20" as="geometry" />
        </mxCell>
      </root>
    </mxGraphModel>
  </diagram>
</mxfile>
